<mxfile host="app.diagrams.net" agent="Mozilla/5.0 (X11; Linux x86_64) AppleWebKit/537.36 (KHTML, like Gecko) Chrome/129.0.0.0 Safari/537.36" version="24.8.3">
  <diagram name="Page-1" id="zHB-0IPfOqeKSKHH2lVT">
    <mxGraphModel dx="1434" dy="664" grid="1" gridSize="10" guides="1" tooltips="1" connect="1" arrows="1" fold="1" page="1" pageScale="1" pageWidth="827" pageHeight="1169" math="0" shadow="0">
      <root>
        <mxCell id="0" />
        <mxCell id="1" parent="0" />
        <mxCell id="bjDrXDAHjn1-3ekSZaPc-3" value="" style="edgeStyle=orthogonalEdgeStyle;rounded=0;orthogonalLoop=1;jettySize=auto;html=1;" parent="1" target="bjDrXDAHjn1-3ekSZaPc-2" edge="1">
          <mxGeometry relative="1" as="geometry">
            <mxPoint x="130" y="290" as="sourcePoint" />
          </mxGeometry>
        </mxCell>
        <mxCell id="bjDrXDAHjn1-3ekSZaPc-5" value="" style="edgeStyle=orthogonalEdgeStyle;rounded=0;orthogonalLoop=1;jettySize=auto;html=1;" parent="1" source="bjDrXDAHjn1-3ekSZaPc-2" target="bjDrXDAHjn1-3ekSZaPc-4" edge="1">
          <mxGeometry relative="1" as="geometry" />
        </mxCell>
        <mxCell id="bjDrXDAHjn1-3ekSZaPc-2" value="&lt;b&gt;Data Parsing&lt;/b&gt;" style="rounded=0;whiteSpace=wrap;html=1;" parent="1" vertex="1">
          <mxGeometry x="200" y="260" width="120" height="60" as="geometry" />
        </mxCell>
        <mxCell id="dWAeLgnYxqXbrjbAxvvp-11" value="" style="edgeStyle=orthogonalEdgeStyle;rounded=0;orthogonalLoop=1;jettySize=auto;html=1;" edge="1" parent="1" source="bjDrXDAHjn1-3ekSZaPc-4" target="dWAeLgnYxqXbrjbAxvvp-10">
          <mxGeometry relative="1" as="geometry" />
        </mxCell>
        <mxCell id="bjDrXDAHjn1-3ekSZaPc-4" value="&lt;b&gt;Validate and Retrieve Task&lt;/b&gt;" style="rounded=0;whiteSpace=wrap;html=1;" parent="1" vertex="1">
          <mxGeometry x="380" y="260" width="120" height="60" as="geometry" />
        </mxCell>
        <mxCell id="bjDrXDAHjn1-3ekSZaPc-9" value="" style="edgeStyle=orthogonalEdgeStyle;rounded=0;orthogonalLoop=1;jettySize=auto;html=1;" parent="1" source="dWAeLgnYxqXbrjbAxvvp-3" target="bjDrXDAHjn1-3ekSZaPc-8" edge="1">
          <mxGeometry relative="1" as="geometry" />
        </mxCell>
        <mxCell id="dWAeLgnYxqXbrjbAxvvp-18" value="" style="edgeStyle=orthogonalEdgeStyle;rounded=0;orthogonalLoop=1;jettySize=auto;html=1;" edge="1" parent="1" source="bjDrXDAHjn1-3ekSZaPc-6" target="dWAeLgnYxqXbrjbAxvvp-17">
          <mxGeometry relative="1" as="geometry" />
        </mxCell>
        <mxCell id="bjDrXDAHjn1-3ekSZaPc-6" value="&lt;b&gt;Verify Employee Assignment to Task&lt;/b&gt;" style="rounded=0;whiteSpace=wrap;html=1;" parent="1" vertex="1">
          <mxGeometry x="650" y="260" width="130" height="60" as="geometry" />
        </mxCell>
        <mxCell id="dWAeLgnYxqXbrjbAxvvp-7" value="" style="edgeStyle=orthogonalEdgeStyle;rounded=0;orthogonalLoop=1;jettySize=auto;html=1;" edge="1" parent="1" source="bjDrXDAHjn1-3ekSZaPc-8" target="dWAeLgnYxqXbrjbAxvvp-6">
          <mxGeometry relative="1" as="geometry" />
        </mxCell>
        <mxCell id="bjDrXDAHjn1-3ekSZaPc-8" value="&lt;b&gt;&quot;Create Time Log Record&quot;&lt;/b&gt;" style="rounded=0;whiteSpace=wrap;html=1;" parent="1" vertex="1">
          <mxGeometry x="1010" y="430" width="120" height="60" as="geometry" />
        </mxCell>
        <mxCell id="dWAeLgnYxqXbrjbAxvvp-3" value="&lt;b&gt;Retrieve Project Id&lt;/b&gt;" style="rounded=0;whiteSpace=wrap;html=1;" vertex="1" parent="1">
          <mxGeometry x="797.5" y="430" width="120" height="60" as="geometry" />
        </mxCell>
        <mxCell id="dWAeLgnYxqXbrjbAxvvp-6" value="&lt;b&gt;&lt;font color=&quot;#007fff&quot;&gt;Response Sent&lt;/font&gt;&lt;/b&gt;" style="rounded=0;whiteSpace=wrap;html=1;" vertex="1" parent="1">
          <mxGeometry x="1230" y="430" width="120" height="60" as="geometry" />
        </mxCell>
        <mxCell id="dWAeLgnYxqXbrjbAxvvp-12" value="&lt;div&gt;Yes&lt;/div&gt;&lt;div&gt;&lt;br&gt;&lt;/div&gt;" style="edgeStyle=orthogonalEdgeStyle;rounded=0;orthogonalLoop=1;jettySize=auto;html=1;exitX=1;exitY=0.5;exitDx=0;exitDy=0;entryX=0;entryY=0.5;entryDx=0;entryDy=0;" edge="1" parent="1" source="dWAeLgnYxqXbrjbAxvvp-10" target="bjDrXDAHjn1-3ekSZaPc-6">
          <mxGeometry x="-0.3333" y="20" relative="1" as="geometry">
            <Array as="points">
              <mxPoint x="630" y="290" />
              <mxPoint x="630" y="290" />
            </Array>
            <mxPoint as="offset" />
          </mxGeometry>
        </mxCell>
        <mxCell id="dWAeLgnYxqXbrjbAxvvp-13" style="edgeStyle=orthogonalEdgeStyle;rounded=0;orthogonalLoop=1;jettySize=auto;html=1;exitX=0.5;exitY=1;exitDx=0;exitDy=0;" edge="1" parent="1" source="dWAeLgnYxqXbrjbAxvvp-10">
          <mxGeometry relative="1" as="geometry">
            <mxPoint x="570" y="370" as="targetPoint" />
          </mxGeometry>
        </mxCell>
        <mxCell id="dWAeLgnYxqXbrjbAxvvp-14" value="No&lt;div&gt;&lt;br&gt;&lt;/div&gt;" style="edgeLabel;html=1;align=center;verticalAlign=middle;resizable=0;points=[];" vertex="1" connectable="0" parent="dWAeLgnYxqXbrjbAxvvp-13">
          <mxGeometry x="0.309" relative="1" as="geometry">
            <mxPoint x="10" y="-6" as="offset" />
          </mxGeometry>
        </mxCell>
        <mxCell id="dWAeLgnYxqXbrjbAxvvp-10" value="&lt;b&gt;&lt;font color=&quot;#cccc00&quot;&gt;Task &lt;br&gt;exists?&lt;/font&gt;&lt;/b&gt;" style="rhombus;whiteSpace=wrap;html=1;" vertex="1" parent="1">
          <mxGeometry x="530" y="250" width="80" height="80" as="geometry" />
        </mxCell>
        <mxCell id="dWAeLgnYxqXbrjbAxvvp-15" value="&lt;b&gt;&lt;font color=&quot;#00cc00&quot;&gt;Request Received&lt;/font&gt;&lt;/b&gt;" style="rounded=1;whiteSpace=wrap;html=1;" vertex="1" parent="1">
          <mxGeometry x="10" y="260" width="120" height="60" as="geometry" />
        </mxCell>
        <mxCell id="dWAeLgnYxqXbrjbAxvvp-16" value="&lt;font face=&quot;Helvetica&quot; style=&quot;font-size: 12px;&quot; color=&quot;#a31515&quot;&gt;&lt;b style=&quot;&quot;&gt;Return 404:&lt;br&gt;&lt;/b&gt;&lt;/font&gt;&lt;div style=&quot;color: rgb(59, 59, 59); background-color: rgb(255, 255, 255); line-height: 19px; white-space: pre;&quot;&gt;&lt;span style=&quot;color: rgb(163, 21, 21);&quot;&gt;&lt;b style=&quot;&quot;&gt;&lt;font face=&quot;Helvetica&quot; style=&quot;font-size: 12px;&quot;&gt;&quot;Task not found&lt;/font&gt;&lt;font face=&quot;BzaX9oFdr3tNfbeXlOnq&quot; style=&quot;font-size: 12px;&quot;&gt;&quot;&lt;/font&gt;&lt;/b&gt;&lt;/span&gt;&lt;/div&gt;" style="rounded=1;whiteSpace=wrap;html=1;" vertex="1" parent="1">
          <mxGeometry x="510" y="370" width="130" height="70" as="geometry" />
        </mxCell>
        <mxCell id="dWAeLgnYxqXbrjbAxvvp-19" value="Yes&lt;div&gt;&lt;br&gt;&lt;/div&gt;" style="edgeStyle=orthogonalEdgeStyle;rounded=0;orthogonalLoop=1;jettySize=auto;html=1;" edge="1" parent="1" source="dWAeLgnYxqXbrjbAxvvp-17" target="dWAeLgnYxqXbrjbAxvvp-3">
          <mxGeometry x="-0.0811" y="23" relative="1" as="geometry">
            <mxPoint y="1" as="offset" />
          </mxGeometry>
        </mxCell>
        <mxCell id="dWAeLgnYxqXbrjbAxvvp-21" value="No" style="edgeStyle=orthogonalEdgeStyle;rounded=0;orthogonalLoop=1;jettySize=auto;html=1;" edge="1" parent="1" source="dWAeLgnYxqXbrjbAxvvp-17" target="dWAeLgnYxqXbrjbAxvvp-20">
          <mxGeometry x="0.1034" y="10" relative="1" as="geometry">
            <mxPoint as="offset" />
          </mxGeometry>
        </mxCell>
        <mxCell id="dWAeLgnYxqXbrjbAxvvp-17" value="&lt;b&gt;&lt;font color=&quot;#cccc00&quot;&gt;Assigned &lt;br&gt;to task?&lt;/font&gt;&lt;/b&gt;" style="rhombus;whiteSpace=wrap;html=1;" vertex="1" parent="1">
          <mxGeometry x="805" y="242.5" width="105" height="95" as="geometry" />
        </mxCell>
        <mxCell id="dWAeLgnYxqXbrjbAxvvp-20" value="&lt;font color=&quot;#a31515&quot;&gt;&lt;b&gt;Return 403: &quot;&lt;span style=&quot;background-color: rgb(255, 255, 255); font-family: &amp;quot;Droid Sans Mono&amp;quot;, &amp;quot;monospace&amp;quot;, monospace; white-space: pre;&quot;&gt;&lt;font style=&quot;font-size: 12px;&quot;&gt;notAssignedToTaskError&lt;/font&gt;&lt;/span&gt;&lt;/b&gt;&lt;/font&gt;" style="rounded=1;whiteSpace=wrap;html=1;" vertex="1" parent="1">
          <mxGeometry x="1000" y="250" width="177.5" height="80" as="geometry" />
        </mxCell>
      </root>
    </mxGraphModel>
  </diagram>
</mxfile>
